<?xml version="1.0" encoding="UTF-8"?>
<svg version="1.1" xmlns="http://www.w3.org/2000/svg" width="1024" height="1024">
<path d="M0 0 C337.92 0 675.84 0 1024 0 C1024 337.92 1024 675.84 1024 1024 C686.08 1024 348.16 1024 0 1024 C0 686.08 0 348.16 0 0 Z " fill="#FBFAF6" transform="translate(0,0)"/>
<path d="M0 0 C9.14029256 7.51535166 13.80151265 16.61495174 15.8125 28.3125 C16.86575876 44.00387639 15.91090953 59.13684948 11.8125 74.3125 C11.63589844 74.98812988 11.45929688 75.66375977 11.27734375 76.35986328 C6.11193705 95.52447868 -4.7795896 112.34283384 -21.24609375 123.6328125 C-28.71795018 127.89960967 -36.82624481 130.0846629 -45.1875 131.875 C-53.05078772 133.59270848 -57.44053134 136.76938103 -62.1875 143.3125 C-63.1775 145.6225 -64.1675 147.9325 -65.1875 150.3125 C-29.2175 150.6425 6.7525 150.9725 43.8125 151.3125 C45.2975 146.3625 45.2975 146.3625 46.8125 141.3125 C50.32161201 132.06199432 54.03746748 123.66737764 60.8125 116.3125 C61.34359375 115.69117188 61.8746875 115.06984375 62.421875 114.4296875 C69.45401324 106.69433543 79.16374994 101.86427935 89.6030426 101.1111908 C92.86307117 101.01599762 96.11748691 100.98293091 99.37890625 100.9765625 C101.16819801 100.9665773 101.16819801 100.9665773 102.99363708 100.95639038 C105.50575221 100.94630136 108.01789393 100.94157219 110.5300293 100.94189453 C114.36617038 100.93751009 118.20117061 100.90111732 122.03710938 100.86328125 C124.48437109 100.85741456 126.93163823 100.85344418 129.37890625 100.8515625 C130.52073868 100.83719147 131.66257111 100.82282043 132.83900452 100.80801392 C139.40556053 100.84560794 143.48662107 101.37179277 148.8125 105.3125 C152.41051769 109.00277455 153.17205204 112.17998688 153.5 117.1875 C153.31631011 122.86775669 151.73283198 125.76078463 147.83203125 129.7890625 C143.99852031 132.68087926 140.40679728 133.56105381 135.65844727 133.56787109 C134.15647545 133.57830948 134.15647545 133.57830948 132.62416077 133.58895874 C131.55322678 133.58796173 130.48229279 133.58696472 129.37890625 133.5859375 C127.09830235 133.60622314 124.81770343 133.62707386 122.53710938 133.6484375 C118.95137324 133.67104959 115.3658335 133.68751494 111.7800293 133.69335938 C108.3126298 133.70288324 104.8461088 133.73665579 101.37890625 133.7734375 C100.30999649 133.76839203 99.24108673 133.76334656 98.13978577 133.75814819 C92.2862657 133.83543962 88.19815315 134.00675181 83.8125 138.3125 C82.53989138 140.81760479 81.63878428 142.94597593 80.796875 145.58203125 C80.29629023 147.02687843 79.79563743 148.47170204 79.29492188 149.91650391 C79.04895264 150.65016174 78.8029834 151.38381958 78.54956055 152.13970947 C77.41774489 155.47620382 76.18065209 158.77204844 74.953125 162.07421875 C73.98583027 164.71477977 73.02416658 167.3573847 72.0625 170 C71.67649124 171.05989639 71.67649124 171.05989639 71.28268433 172.14120483 C67.71868412 181.93752905 64.246861 191.76056443 60.875 201.625 C57.34985124 211.93376171 53.71701642 222.19688231 50 232.4375 C44.75708051 246.88346816 39.58174805 261.35279424 34.43443584 275.83310127 C32.83640294 280.32849533 31.23622724 284.82312218 29.63500977 289.31738281 C24.08468586 304.89754357 24.08468586 304.89754357 18.58695984 320.49632263 C17.33000387 324.0793693 16.06544367 327.65970328 14.79953003 331.23959351 C14.23664554 332.83801648 13.67749448 334.43776047 13.12258911 336.03897095 C6.93464894 353.89023349 0.06885842 368.89531325 -17.1875 378.3125 C-20.17936582 379.66281112 -21.88427701 380.3125 -25.1875 380.3125 C-24.70539063 381.03695313 -24.22328125 381.76140625 -23.7265625 382.5078125 C-22.77910156 383.95800781 -22.77910156 383.95800781 -21.8125 385.4375 C-21.18601562 386.38882812 -20.55953125 387.34015625 -19.9140625 388.3203125 C-15.07631694 396.70427879 -14.6081052 406.41518896 -17.09765625 415.7109375 C-21.2645898 426.34934663 -27.02031503 432.21261395 -37.1875 437.3125 C-45.96022391 440.82158957 -54.91309151 440.16530704 -63.55078125 436.62890625 C-72.9834143 431.91957686 -78.49997148 425.17959874 -82.3203125 415.41796875 C-85.21713775 405.04420266 -83.13960156 395.63145475 -78.1875 386.3125 C-77.5275 385.3225 -76.8675 384.3325 -76.1875 383.3125 C-119.2525 383.8075 -119.2525 383.8075 -163.1875 384.3125 C-161.5375 387.6125 -159.8875 390.9125 -158.1875 394.3125 C-155.83809775 403.71010899 -156.61368117 414.05290218 -161.4765625 422.5703125 C-166.99031065 430.32494226 -173.79138198 436.10741363 -183.1875 438.3125 C-193.71990965 439.57595348 -202.32258562 438.73692456 -211.1875 432.3125 C-218.40149336 425.86973949 -223.58160463 418.02928291 -224.4609375 408.28125 C-224.71808306 399.49874015 -223.19203132 393.12133608 -219.1875 385.3125 C-220.27289063 385.27511719 -221.35828125 385.23773437 -222.4765625 385.19921875 C-223.92190739 385.13352125 -225.36721839 385.06707524 -226.8125 385 C-227.52535156 384.97744141 -228.23820312 384.95488281 -228.97265625 384.93164062 C-233.70371061 384.6929177 -237.06650229 383.8551126 -241.1875 381.3125 C-245.24569654 376.81557951 -246.71641321 373.76695561 -246.66796875 367.76953125 C-245.78106197 363.23404859 -242.70540998 360.14996318 -239.1875 357.3125 C-234.84731405 355.08133536 -230.74582553 355.03187598 -225.97135925 355.0609436 C-225.14785408 355.05797346 -224.3243489 355.05500333 -223.47588903 355.05194318 C-220.71847424 355.04430912 -217.96127283 355.05079481 -215.20385742 355.05712891 C-213.22597611 355.05437872 -211.24809591 355.05069865 -209.2702179 355.04615784 C-205.01139522 355.03804632 -200.75262504 355.03587728 -196.49379539 355.03810501 C-189.75756413 355.04093766 -183.02143779 355.02658769 -176.28523254 355.00912476 C-157.13019385 354.96209385 -137.97516222 354.93815778 -118.82006836 354.93164062 C-108.24049348 354.92788917 -97.66103725 354.9098527 -87.08151323 354.87654626 C-80.38747343 354.85633464 -73.6937397 354.85396101 -66.99968183 354.86482644 C-62.83104196 354.86743556 -58.66257988 354.85341952 -54.49398613 354.83474541 C-52.5638926 354.82942783 -50.63376624 354.83091277 -48.70368576 354.83978081 C-46.06356383 354.85093079 -43.42464084 354.83743748 -40.78459167 354.81802368 C-39.64570434 354.83171067 -39.64570434 354.83171067 -38.48380917 354.84567416 C-32.1862129 354.75589651 -26.95491259 352.7976365 -22.234375 348.55859375 C-19.47524032 344.71076436 -17.58328676 341.01371133 -16.015625 336.53515625 C-15.49597168 335.06381226 -15.49597168 335.06381226 -14.96582031 333.56274414 C-14.70897461 332.82016357 -14.45212891 332.07758301 -14.1875 331.3125 C-15.19926583 331.31710896 -16.21103167 331.32171793 -17.25345707 331.32646656 C-41.91873345 331.43766733 -66.58397717 331.51972485 -91.24945164 331.57156086 C-103.1777038 331.59729731 -115.10578996 331.63236054 -127.03393555 331.68969727 C-137.43549638 331.73967193 -147.83693694 331.77182411 -158.2386145 331.78294247 C-163.74174806 331.78943743 -169.24453763 331.80460696 -174.7475605 331.84115028 C-179.93749972 331.87533217 -185.12695642 331.88550847 -190.31699753 331.87803841 C-192.21192874 331.87940309 -194.10687773 331.88920226 -196.00171089 331.90852737 C-215.26022584 332.09514737 -230.78537864 327.86052047 -245 314 C-256.11205328 302.39724351 -259.92705247 288.52218593 -264.4609375 273.453125 C-264.8655846 272.11600457 -265.27048315 270.77896021 -265.6756134 269.44198608 C-266.75286454 265.88392126 -267.82618714 262.32468333 -268.89855576 258.76514435 C-269.78847092 255.81283831 -270.68060648 252.86120512 -271.57269573 249.90955544 C-277.2079432 231.26255502 -282.81102551 212.60589578 -288.375 193.9375 C-288.81824615 192.45086853 -288.81824615 192.45086853 -289.27044678 190.9342041 C-290.0916786 188.17785251 -290.91145507 185.4210739 -291.73046875 182.6640625 C-291.96804398 181.86616302 -292.2056192 181.06826355 -292.45039368 180.2461853 C-296.74100239 165.77098387 -296.74100239 165.77098387 -293.5625 159.625 C-291.62840187 156.16180719 -288.80303494 153.8606459 -285.1875 152.3125 C-281.22619516 151.73750458 -277.30358253 151.80704706 -273.30712891 151.85839844 C-272.11631714 151.85781433 -270.92550537 151.85723022 -269.6986084 151.85662842 C-266.44672339 151.85893162 -263.195534 151.87894022 -259.9437871 151.90692425 C-256.54054846 151.93199217 -253.13729499 151.93428412 -249.73397827 151.93902588 C-243.29542429 151.95143993 -236.85714318 151.98423992 -230.41870916 152.02442384 C-223.08622094 152.06919076 -215.75371945 152.0911409 -208.42112851 152.11120558 C-193.34310051 152.15297421 -178.26532759 152.22329533 -163.1875 152.3125 C-164.11564287 150.06600236 -165.05156058 147.82329701 -165.9921875 145.58203125 C-166.25217529 144.95043091 -166.51216309 144.31883057 -166.7800293 143.66809082 C-171.46006425 132.57561231 -179.08360806 128.99092438 -189.77783203 124.6315918 C-197.477556 121.45514046 -203.80790371 117.25978667 -209.4375 111.0625 C-210.06140625 110.39734375 -210.6853125 109.7321875 -211.328125 109.046875 C-216.40638352 101.57884776 -218.43521872 92.43175693 -220.75 83.8125 C-221.07935547 82.59868652 -221.40871094 81.38487305 -221.74804688 80.13427734 C-222.68857047 76.65949695 -223.61845162 73.18192797 -224.54718018 69.70397949 C-225.23737391 67.12622992 -225.93254458 64.54985474 -226.62841797 61.97363281 C-227.9060717 57.24034548 -229.17305738 52.50430399 -230.43331909 47.76635742 C-230.93378415 45.88916286 -231.43695396 44.01268719 -231.94290161 42.13696289 C-232.65793857 39.48150784 -233.36155516 36.82326711 -234.0625 34.1640625 C-234.38534218 32.97818039 -234.38534218 32.97818039 -234.71470642 31.76834106 C-235.90642888 27.19137476 -236.54843333 23.08509131 -236.1875 18.3125 C-234.5625 15.875 -234.5625 15.875 -232.1875 14.3125 C-229.1875 13.75 -229.1875 13.75 -226.1875 14.3125 C-221.51162472 18.75818935 -219.91089786 24.82291978 -217.81640625 30.75390625 C-217.41219955 31.87256577 -217.00799286 32.99122528 -216.59153748 34.14378357 C-215.30190108 37.71765035 -214.02536856 41.29601957 -212.75 44.875 C-211.47590557 48.4281118 -210.19902167 51.98019119 -208.91917419 55.53123474 C-208.12499675 57.73709237 -207.33443612 59.94425697 -206.54823303 62.15296936 C-202.8501167 74.61406928 -202.8501167 74.61406928 -196.1875 85.3125 C-193.08823181 84.99051034 -193.08823181 84.99051034 -190.1875 84.3125 C-189.02210024 80.16652008 -189.40236459 77.75152144 -190.86230469 73.73120117 C-191.44851593 72.08875679 -191.44851593 72.08875679 -192.04656982 70.41313171 C-192.47979553 69.23910294 -192.91302124 68.06507416 -193.359375 66.85546875 C-193.79759583 65.63853836 -194.23581665 64.42160797 -194.68731689 63.1678009 C-195.85235487 59.93316036 -197.03221868 56.70412337 -198.21520996 53.47601318 C-199.40785016 50.2132342 -200.58602385 46.94524461 -201.765625 43.67773438 C-206.28858842 31.14237554 -206.28858842 31.14237554 -210.95654297 18.66064453 C-212.53131171 14.37734851 -212.64546455 11.81581811 -212.1875 7.3125 C-211.125 5.3125 -211.125 5.3125 -209.1875 4.3125 C-203.04085038 3.6539304 -203.04085038 3.6539304 -200.60449219 5.53417969 C-198.92362781 7.64365869 -198.02501982 9.63713977 -197.015625 12.140625 C-196.60554199 13.15012207 -196.19545898 14.15961914 -195.77294922 15.19970703 C-195.33225098 16.30942871 -194.89155273 17.41915039 -194.4375 18.5625 C-193.97230957 19.71733887 -193.50711914 20.87217773 -193.02783203 22.06201172 C-187.88059952 34.88776691 -182.96269878 47.8059718 -178.05175781 60.72363281 C-177.73596771 61.55162384 -177.42017761 62.37961487 -177.09481812 63.23269653 C-176.49651384 64.80187105 -175.90041194 66.37188753 -175.30679321 67.94284058 C-174.18566532 71.38698046 -174.18566532 71.38698046 -172.1875 74.3125 C-169.6875 74.47916667 -169.6875 74.47916667 -167.1875 74.3125 C-165.86231692 73.20108146 -165.86231692 73.20108146 -165.92578125 70.38671875 C-166.01407953 65.33324187 -167.72131689 60.85395346 -169.375 56.125 C-169.71724609 55.11630859 -170.05949219 54.10761719 -170.41210938 53.06835938 C-172.71642642 46.3464397 -175.14891486 39.67616557 -177.61328125 33.01171875 C-178.20882408 31.39285311 -178.80428284 29.77395654 -179.3996582 28.1550293 C-180.5737094 24.96408307 -181.76623165 21.78086484 -182.96948242 18.60083008 C-183.52187581 17.10909182 -184.07373835 15.61715686 -184.625 14.125 C-185.01350883 13.11991646 -185.01350883 13.11991646 -185.40986633 12.0945282 C-187.17792615 7.2469771 -187.67340041 3.39534582 -187.1875 -1.6875 C-183.69184664 -4.01793558 -182.3009271 -4.27513244 -178.1875 -3.6875 C-174.2195901 0.39447713 -172.00836646 5.37099279 -169.5625 10.4375 C-168.67614338 12.24170395 -167.78807971 14.04507014 -166.8984375 15.84765625 C-166.44823242 16.76047363 -165.99802734 17.67329102 -165.53417969 18.61376953 C-163.47873838 22.73285007 -161.34054649 26.80629092 -159.1875 30.875 C-158.77910889 31.6494043 -158.37071777 32.42380859 -157.94995117 33.22167969 C-155.82272777 37.24798586 -153.6763418 41.26321076 -151.51171875 45.26953125 C-142.57953659 61.88152134 -133.97206732 79.24035427 -138.76464844 98.64990234 C-140.2316834 103.03426923 -142.20497491 107.13876298 -144.1875 111.3125 C-148.85498395 125.28716922 -142.66252254 137.30932147 -137.1875 150.3125 C-122.6675 150.3125 -108.1475 150.3125 -93.1875 150.3125 C-91.5375 147.05375 -89.8875 143.795 -88.1875 140.4375 C-87.40439453 138.92953857 -87.40439453 138.92953857 -86.60546875 137.39111328 C-83.60228184 131.2691406 -82.10469993 126.13811683 -83.1875 119.3125 C-84.24373461 116.2821332 -84.24373461 116.2821332 -85.9375 113.8125 C-94.55176589 99.45539018 -96.61299127 83.78097056 -93.57421875 67.24609375 C-86.93930743 42.02173924 -68.51826399 17.75477449 -46.37158203 4.20117188 C-31.35721477 -4.35990094 -15.93637451 -8.43690415 0 0 Z " fill="#FE720F" transform="translate(565.1875,169.6875)"/>
<path d="M0 0 C9.14029256 7.51535166 13.80151265 16.61495174 15.8125 28.3125 C16.86575876 44.00387639 15.91090953 59.13684948 11.8125 74.3125 C11.63589844 74.98812988 11.45929688 75.66375977 11.27734375 76.35986328 C6.11193705 95.52447868 -4.7795896 112.34283384 -21.24609375 123.6328125 C-28.71795018 127.89960967 -36.82624481 130.0846629 -45.1875 131.875 C-52.99813242 133.58120611 -57.47814688 136.89719595 -62.1875 143.3125 C-63.46483854 145.66729472 -64.62143819 147.95464373 -65.71875 150.38671875 C-66.18779755 151.39579033 -66.18779755 151.39579033 -66.6663208 152.42524719 C-67.68150546 154.61317595 -68.68435245 156.80653007 -69.6875 159 C-70.75671433 161.31102178 -71.82918426 163.62051485 -72.90179443 165.92996216 C-73.62438751 167.48634626 -74.34594295 169.04321252 -75.06646729 170.60055542 C-78.28068193 177.5421609 -81.59760717 184.43043625 -84.9375 191.3125 C-86.49267278 194.54391126 -88.0449944 197.77667847 -89.59667969 201.00976562 C-90.99358508 203.90990929 -92.40176157 206.8043205 -93.81274414 209.69763184 C-95.24388359 212.64562074 -96.65118441 215.60498203 -98.0625 218.5625 C-98.59327148 219.64015625 -99.12404297 220.7178125 -99.67089844 221.828125 C-100.14817383 222.83875 -100.62544922 223.849375 -101.1171875 224.890625 C-101.54241699 225.77137695 -101.96764648 226.65212891 -102.40576172 227.55957031 C-104.29182165 234.20142282 -101.18109126 240.49669652 -98.73046875 246.61328125 C-98.38623367 247.48969772 -98.0419986 248.3661142 -97.68733215 249.26908875 C-96.59028006 252.05723767 -95.48281246 254.84111145 -94.375 257.625 C-93.64189049 259.48345285 -92.90946214 261.34217456 -92.17773438 263.20117188 C-90.82079337 266.64399073 -89.4606665 270.08549635 -88.09448242 273.5246582 C-87.7852182 274.30588043 -87.47595398 275.08710266 -87.15731812 275.89199829 C-86.47477772 277.59550347 -85.77961324 279.29397786 -85.0753479 280.98861694 C-84.71315155 281.86659943 -84.3509552 282.74458191 -83.9777832 283.64916992 C-83.48179375 284.83502937 -83.48179375 284.83502937 -82.9757843 286.04484558 C-81.68209404 289.76639939 -81.65579511 292.39117642 -82.1875 296.3125 C-83.94726259 299.31061404 -85.44957789 300.84866324 -88.375 302.6875 C-92.43677449 303.59011655 -96.29102984 303.90563805 -100.1875 302.3125 C-106.40625718 296.53437668 -108.96345442 289.48504916 -112 281.6875 C-112.48919922 280.47320312 -112.97839844 279.25890625 -113.48242188 278.0078125 C-117.34613384 268.30310859 -117.34613384 268.30310859 -118.1875 263.3125 C-118.8475 263.3125 -119.5075 263.3125 -120.1875 263.3125 C-120.4546582 264.1677124 -120.72181641 265.0229248 -120.99707031 265.90405273 C-122.87992518 271.29505699 -125.45963209 276.34435556 -127.99023438 281.45336914 C-128.93362606 283.3671413 -129.85734777 285.28965052 -130.78125 287.21289062 C-131.38942853 288.44590338 -131.998766 289.6783453 -132.609375 290.91015625 C-133.15174805 292.01883057 -133.69412109 293.12750488 -134.25292969 294.26977539 C-137.04328006 298.65848522 -140.15053691 301.6335123 -145.1875 303.3125 C-150.58638643 303.66081525 -153.77620745 303.74350532 -158.1875 300.3125 C-161.38859418 297.46708295 -162.87104862 295.55067429 -163.48291016 291.22314453 C-163.85918106 283.60327165 -161.34806205 278.66284612 -157.5625 272.1875 C-156.98653076 271.16430664 -156.41056152 270.14111328 -155.81713867 269.08691406 C-153.96501206 265.81408389 -152.08036167 262.56192051 -150.1875 259.3125 C-149.54151855 258.19584961 -148.89553711 257.07919922 -148.22998047 255.92871094 C-144.68153602 249.79724029 -141.10718935 243.6820693 -137.4934082 237.58886719 C-137.0624585 236.83766602 -136.63150879 236.08646484 -136.1875 235.3125 C-135.77910889 234.69793945 -135.37071777 234.08337891 -134.94995117 233.45019531 C-132.83448339 227.51902788 -136.28433984 220.87552509 -138.4765625 215.33984375 C-138.81205612 214.47530075 -139.14754974 213.61075775 -139.49320984 212.72001648 C-140.59221818 209.89371878 -141.70198595 207.07179459 -142.8125 204.25 C-143.57886698 202.28909423 -144.34473045 200.32799161 -145.11010742 198.36669922 C-146.68313097 194.33990689 -148.26100647 190.31506129 -149.84228516 186.29150391 C-151.72868469 181.48868965 -153.60020788 176.68029257 -155.46447754 171.86885071 C-156.81688934 168.38092014 -158.17563893 164.89548388 -159.53607178 161.41067505 C-160.17433559 159.77306542 -160.81047473 158.13462596 -161.44439697 156.49533081 C-162.3271307 154.21547743 -163.21900005 151.93940662 -164.11328125 149.6640625 C-164.36679855 149.00347336 -164.62031586 148.34288422 -164.8815155 147.66227722 C-169.11451214 136.98416268 -175.42032907 130.79612262 -185.77539062 126.27709961 C-187.38590273 125.59132791 -188.9965804 124.90594493 -190.60742188 124.22094727 C-196.09105954 121.86764757 -200.86080936 119.50715548 -205.1875 115.3125 C-206.22777344 114.31283203 -206.22777344 114.31283203 -207.2890625 113.29296875 C-215.32939503 104.94564171 -217.80134864 94.79201842 -220.75 83.8125 C-221.07935547 82.59868652 -221.40871094 81.38487305 -221.74804688 80.13427734 C-222.68857047 76.65949695 -223.61845162 73.18192797 -224.54718018 69.70397949 C-225.23737391 67.12622992 -225.93254458 64.54985474 -226.62841797 61.97363281 C-227.9060717 57.24034548 -229.17305738 52.50430399 -230.43331909 47.76635742 C-230.93378415 45.88916286 -231.43695396 44.01268719 -231.94290161 42.13696289 C-232.65793857 39.48150784 -233.36155516 36.82326711 -234.0625 34.1640625 C-234.27772812 33.37347443 -234.49295624 32.58288635 -234.71470642 31.76834106 C-235.90642888 27.19137476 -236.54843333 23.08509131 -236.1875 18.3125 C-234.5625 15.875 -234.5625 15.875 -232.1875 14.3125 C-229.1875 13.75 -229.1875 13.75 -226.1875 14.3125 C-221.51162472 18.75818935 -219.91089786 24.82291978 -217.81640625 30.75390625 C-217.41219955 31.87256577 -217.00799286 32.99122528 -216.59153748 34.14378357 C-215.30190108 37.71765035 -214.02536856 41.29601957 -212.75 44.875 C-211.47590557 48.4281118 -210.19902167 51.98019119 -208.91917419 55.53123474 C-208.12499675 57.73709237 -207.33443612 59.94425697 -206.54823303 62.15296936 C-202.8501167 74.61406928 -202.8501167 74.61406928 -196.1875 85.3125 C-193.08823181 84.99051034 -193.08823181 84.99051034 -190.1875 84.3125 C-189.02210024 80.16652008 -189.40236459 77.75152144 -190.86230469 73.73120117 C-191.44851593 72.08875679 -191.44851593 72.08875679 -192.04656982 70.41313171 C-192.47979553 69.23910294 -192.91302124 68.06507416 -193.359375 66.85546875 C-193.79759583 65.63853836 -194.23581665 64.42160797 -194.68731689 63.1678009 C-195.85235487 59.93316036 -197.03221868 56.70412337 -198.21520996 53.47601318 C-199.40785016 50.2132342 -200.58602385 46.94524461 -201.765625 43.67773438 C-206.28858842 31.14237554 -206.28858842 31.14237554 -210.95654297 18.66064453 C-212.53131171 14.37734851 -212.64546455 11.81581811 -212.1875 7.3125 C-211.125 5.3125 -211.125 5.3125 -209.1875 4.3125 C-203.04085038 3.6539304 -203.04085038 3.6539304 -200.60449219 5.53417969 C-198.92362781 7.64365869 -198.02501982 9.63713977 -197.015625 12.140625 C-196.60554199 13.15012207 -196.19545898 14.15961914 -195.77294922 15.19970703 C-195.33225098 16.30942871 -194.89155273 17.41915039 -194.4375 18.5625 C-193.97230957 19.71733887 -193.50711914 20.87217773 -193.02783203 22.06201172 C-187.88059952 34.88776691 -182.96269878 47.8059718 -178.05175781 60.72363281 C-177.73596771 61.55162384 -177.42017761 62.37961487 -177.09481812 63.23269653 C-176.49651384 64.80187105 -175.90041194 66.37188753 -175.30679321 67.94284058 C-174.18566532 71.38698046 -174.18566532 71.38698046 -172.1875 74.3125 C-169.6875 74.47916667 -169.6875 74.47916667 -167.1875 74.3125 C-165.86231692 73.20108146 -165.86231692 73.20108146 -165.92578125 70.38671875 C-166.01407953 65.33324187 -167.72131689 60.85395346 -169.375 56.125 C-169.71724609 55.11630859 -170.05949219 54.10761719 -170.41210938 53.06835938 C-172.71642642 46.3464397 -175.14891486 39.67616557 -177.61328125 33.01171875 C-178.20882408 31.39285311 -178.80428284 29.77395654 -179.3996582 28.1550293 C-180.5737094 24.96408307 -181.76623165 21.78086484 -182.96948242 18.60083008 C-183.52187581 17.10909182 -184.07373835 15.61715686 -184.625 14.125 C-185.01350883 13.11991646 -185.01350883 13.11991646 -185.40986633 12.0945282 C-187.17792615 7.2469771 -187.67340041 3.39534582 -187.1875 -1.6875 C-183.69184664 -4.01793558 -182.3009271 -4.27513244 -178.1875 -3.6875 C-174.2195901 0.39447713 -172.00836646 5.37099279 -169.5625 10.4375 C-168.67614338 12.24170395 -167.78807971 14.04507014 -166.8984375 15.84765625 C-166.44823242 16.76047363 -165.99802734 17.67329102 -165.53417969 18.61376953 C-163.47873838 22.73285007 -161.34054649 26.80629092 -159.1875 30.875 C-158.77910889 31.6494043 -158.37071777 32.42380859 -157.94995117 33.22167969 C-155.82272777 37.24798586 -153.6763418 41.26321076 -151.51171875 45.26953125 C-142.57953659 61.88152134 -133.97206732 79.24035427 -138.76464844 98.64990234 C-140.2316834 103.03426923 -142.20497491 107.13876298 -144.1875 111.3125 C-148.85498395 125.28716922 -142.66252254 137.30932147 -137.1875 150.3125 C-122.6675 150.3125 -108.1475 150.3125 -93.1875 150.3125 C-91.5375 147.05375 -89.8875 143.795 -88.1875 140.4375 C-87.40439453 138.92953857 -87.40439453 138.92953857 -86.60546875 137.39111328 C-83.60228184 131.2691406 -82.10469993 126.13811683 -83.1875 119.3125 C-84.24373461 116.2821332 -84.24373461 116.2821332 -85.9375 113.8125 C-94.55176589 99.45539018 -96.61299127 83.78097056 -93.57421875 67.24609375 C-86.93930743 42.02173924 -68.51826399 17.75477449 -46.37158203 4.20117188 C-31.35721477 -4.35990094 -15.93637451 -8.43690415 0 0 Z " fill="#318535" transform="translate(565.1875,169.6875)"/>
<path d="M0 0 C70.02877698 0 70.02877698 0 81.8046875 10.62890625 C88.8650922 18.19864363 90.76008843 25.95780126 90.44140625 36.20703125 C89.50411774 44.26107678 86.89668953 50.72391997 80.8125 56.1875 C78.90095588 57.68968859 77.17229311 58.91385345 75 60 C76.08667969 60.63615234 76.08667969 60.63615234 77.1953125 61.28515625 C87.48083585 67.52504042 93.01909342 73.11005622 96 85 C97.32583056 93.84880171 94.72549418 102.78213269 90 110.25 C83.08026086 119.37477132 73.96796476 122.99539796 63 125 C58.00903674 125.37363514 53.04950697 125.35208061 48.046875 125.29296875 C46.82049316 125.28994751 45.59411133 125.28692627 44.33056641 125.28381348 C39.8036238 125.26826419 35.27680233 125.22638178 30.75 125.1875 C20.6025 125.125625 10.455 125.06375 0 125 C0 83.75 0 42.5 0 0 Z " fill="#1D2F35" transform="translate(480,661)"/>
<path d="M0 0 C70.13970588 0 70.13970588 0 81.74609375 10.59375 C87.27455982 16.43931013 90.17659629 23.46870311 90.4375 31.5 C90.07756673 40.27492481 87.67984323 48.44607183 81.2578125 54.6953125 C76.43255814 59 76.43255814 59 74 59 C74 59.66 74 60.32 74 61 C74.825 61.20625 75.65 61.4125 76.5 61.625 C85.24715566 65.06138258 89.86807289 70.6932538 94 79 C96.72375289 87.17125868 95.78960144 97.58737739 92.4453125 105.43359375 C86.57916763 115.84996451 78.8060582 120.50154839 67.73071289 124.04638672 C61.3981415 125.60052753 54.9155074 125.24555108 48.4375 125.1953125 C46.59188477 125.19229126 46.59188477 125.19229126 44.70898438 125.18920898 C40.13928467 125.17879259 35.56963835 125.1508702 31 125.125 C20.77 125.08375 10.54 125.0425 0 125 C0 83.75 0 42.5 0 0 Z " fill="#1D2F35" transform="translate(108,661)"/>
<path d="M0 0 C6.71844296 5.61982964 10.44355735 13.00050432 11.86328125 21.55859375 C11.94828216 23.67416838 11.98104968 25.79214652 11.97680664 27.90942383 C11.97669334 29.80081841 11.97669334 29.80081841 11.97657776 31.73042297 C11.97147194 33.09632406 11.96625595 34.46222473 11.9609375 35.828125 C11.95907095 37.23345387 11.95764817 38.6387834 11.95664978 40.04411316 C11.95284325 43.731535 11.94302899 47.41891705 11.9319458 51.10632324 C11.9216915 54.87361106 11.91714357 58.64090535 11.91210938 62.40820312 C11.90140495 69.79168685 11.88382335 77.17512964 11.86328125 84.55859375 C4.27328125 84.55859375 -3.31671875 84.55859375 -11.13671875 84.55859375 C-11.79671875 81.91859375 -12.45671875 79.27859375 -13.13671875 76.55859375 C-14.52890625 77.91984375 -14.52890625 77.91984375 -15.94921875 79.30859375 C-25.34606165 87.16100505 -36.27226266 87.55763321 -48.01074219 86.77734375 C-55.80225473 85.97564471 -61.29691039 82.47282253 -66.5078125 76.74609375 C-71.76146628 69.69082728 -72.22339925 61.08644834 -71.13671875 52.55859375 C-68.69079994 44.64468754 -64.18120968 39.24543019 -56.921875 35.37890625 C-42.79065622 29.10345415 -27.23158963 30.31867038 -12.13671875 30.55859375 C-12.95211877 21.08493312 -12.95211877 21.08493312 -18.13671875 13.55859375 C-23.66783856 10.87886157 -29.10678606 10.99558244 -35.13671875 11.55859375 C-38.64149525 12.88844944 -38.64149525 12.88844944 -41.13671875 14.55859375 C-41.79671875 14.55859375 -42.45671875 14.55859375 -43.13671875 14.55859375 C-43.44609375 15.34234375 -43.75546875 16.12609375 -44.07421875 16.93359375 C-45.13671875 19.55859375 -45.13671875 19.55859375 -46.13671875 21.55859375 C-53.52726635 21.70575067 -60.7809671 21.26636367 -68.13671875 20.55859375 C-67.86954809 12.14271803 -65.4168132 6.68288177 -59.3125 0.80078125 C-42.99524105 -12.3721783 -16.72092227 -12.25793388 0 0 Z " fill="#1C2E35" transform="translate(657.13671875,701.44140625)"/>
<path d="M0 0 C7.9583586 5.5406294 12.27153231 12.40555074 14.625 21.75 C15.18539674 26.84665949 15.23129342 31.92140288 15.234375 37.04296875 C15.24939056 38.48458176 15.26612466 39.92617778 15.28448486 41.36775208 C15.32779303 45.12412394 15.34807515 48.88026396 15.36322021 52.63684082 C15.38292473 56.48524482 15.42487867 60.33340314 15.46484375 64.18164062 C15.53974914 71.70439152 15.58821711 79.2269484 15.625 86.75 C8.035 86.75 0.445 86.75 -7.375 86.75 C-8.035 83.78 -8.695 80.81 -9.375 77.75 C-10.3340625 79.11125 -10.3340625 79.11125 -11.3125 80.5 C-15.35125188 85.38112013 -21.3175005 87.42828841 -27.375 88.75 C-30.60080907 89.01591377 -33.82685229 89.02694343 -37.0625 89.0625 C-37.92294922 89.09150391 -38.78339844 89.12050781 -39.66992188 89.15039062 C-48.3321547 89.23525048 -55.4431037 86.37758897 -61.87109375 80.53125 C-66.80843286 74.68338861 -68.75763212 66.99856329 -68.6484375 59.5078125 C-67.92995119 52.26136481 -64.87415863 46.15742167 -59.48046875 41.28125 C-48.17993301 33.06267855 -35.17948512 32.42803671 -21.6875 32.625 C-19.90182617 32.63853516 -19.90182617 32.63853516 -18.08007812 32.65234375 C-15.17816633 32.67565228 -12.27669683 32.70836877 -9.375 32.75 C-9.50126911 31.14519673 -9.63725328 29.54115585 -9.77734375 27.9375 C-9.88937134 26.59751953 -9.88937134 26.59751953 -10.00366211 25.23046875 C-10.45626855 22.20714107 -11.60300399 20.21538576 -13.375 17.75 C-13.375 17.09 -13.375 16.43 -13.375 15.75 C-20.70787557 12.97808469 -28.52954437 12.42398082 -36 15 C-39.47364332 17.55952666 -41.01481862 19.66945586 -42.375 23.75 C-53.76 23.255 -53.76 23.255 -65.375 22.75 C-64.10761343 12.61090747 -61.27781957 7.70736452 -53.48046875 1.28515625 C-38.23223817 -9.83275585 -16.03429703 -9.02694203 0 0 Z " fill="#1B2D34" transform="translate(836.375,699.25)"/>
<path d="M0 0 C1.29461655 0.00222061 2.58923309 0.00444122 3.92308044 0.00672913 C4.99131546 0.00651009 4.99131546 0.00651009 6.08113098 0.00628662 C8.4457143 0.00698581 10.81021979 0.01477846 13.17478943 0.02259827 C14.81003781 0.02446243 16.44528675 0.02588634 18.08053589 0.02688599 C22.39273103 0.03071134 26.7048927 0.04054177 31.01707458 0.05158997 C35.41404263 0.06180371 39.81101607 0.06638353 44.20799255 0.07142639 C52.84147149 0.08216402 61.47492317 0.09924065 70.10838318 0.12025452 C70.23580432 3.13853107 70.32826472 6.15135054 70.40135193 9.17103577 C70.44062805 10.01702332 70.47990417 10.86301086 70.52037048 11.7346344 C70.65292361 19.05333433 68.40252955 22.76657039 63.80638123 28.22523499 C63.33240906 28.70363831 62.85843689 29.18204163 62.37010193 29.67494202 C58.93519586 33.25964098 55.83751902 37.06129362 52.73338318 40.93275452 C52.19697205 41.59017639 51.66056091 42.24759827 51.1078949 42.92494202 C45.41783323 49.90105564 39.97244939 57.06135737 34.54954529 64.24598694 C32.76820182 66.56266893 30.93396828 68.83827314 29.10838318 71.12025452 C43.29838318 71.45025452 57.48838318 71.78025452 72.10838318 72.12025452 C72.10838318 78.72025452 72.10838318 85.32025452 72.10838318 92.12025452 C46.69838318 92.12025452 21.28838318 92.12025452 -4.89161682 92.12025452 C-4.89161682 74.12025452 -4.89161682 74.12025452 -0.45411682 68.18275452 C1.38841235 66.48255555 3.24252083 64.79481356 5.10838318 63.12025452 C6.62339486 61.35879402 8.10343191 59.56661055 9.54588318 57.74525452 C12.86608153 53.63313606 16.24419912 49.58084394 19.67088318 45.55775452 C23.58962536 40.95129953 27.42066144 36.28935677 31.15916443 31.53431702 C33.73932816 28.3388437 36.43551601 25.23859955 39.10838318 22.12025452 C24.91838318 21.79025452 10.72838318 21.46025452 -3.89161682 21.12025452 C-3.89161682 0.16184181 -3.89161682 0.16184181 0 0 Z " fill="#1C2E34" transform="translate(392.89161682128906,693.8797454833984)"/>
<path d="M0 0 C24.09 0 48.18 0 73 0 C73 19 73 19 69.8125 23.625 C69.07902344 24.27726563 68.34554687 24.92953125 67.58984375 25.6015625 C64.19944748 28.7413865 61.61890297 32.29604068 58.875 36 C53.7320949 42.82341006 48.40758954 49.46744249 42.93310547 56.02734375 C38.83644834 60.94284563 34.93563812 65.93989384 31 71 C52.78 71.495 52.78 71.495 75 72 C75 78.6 75 85.2 75 92 C49.26 92 23.52 92 -3 92 C-3 73.56435863 -3 73.56435863 3.58764648 66.30712891 C4.28482788 65.64849854 4.28482788 65.64849854 4.99609375 64.9765625 C7.72503446 62.31052444 10.1251185 59.49123005 12.5 56.5 C15.78823666 52.46016639 19.12728154 48.46913868 22.5 44.5 C28.78856356 37.09729924 34.93198609 29.58501739 41 22 C20.705 21.505 20.705 21.505 0 21 C0 14.07 0 7.14 0 0 Z " fill="#1E3036" transform="translate(302,694)"/>
<path d="M0 0 C24.09 0 48.18 0 73 0 C73 20.57259061 73 20.57259061 66.55737305 27.58740234 C66.08855713 28.02004395 65.61974121 28.45268555 65.13671875 28.8984375 C61.91617803 32.00881488 59.2137701 35.38423241 56.5 38.9375 C55.58678085 40.11003232 54.67271553 41.2819061 53.7578125 42.453125 C53.30438477 43.03642578 52.85095703 43.61972656 52.38378906 44.22070312 C50.05480465 47.21534645 47.71550911 50.20186117 45.375 53.1875 C44.76495117 53.96951782 44.76495117 53.96951782 44.14257812 54.76733398 C39.84594384 60.25195055 35.41579536 65.60291678 31 71 C45.19 71.33 59.38 71.66 74 72 C74 78.6 74 85.2 74 92 C48.59 92 23.18 92 -3 92 C-3 73.09024218 -3 73.09024218 1.16455078 68.73193359 C1.74962402 68.20164551 2.33469727 67.67135742 2.9375 67.125 C4.14321099 65.89187907 5.34763319 64.6574967 6.55078125 63.421875 C7.1432666 62.84115234 7.73575195 62.26042969 8.34619141 61.66210938 C10.62310782 59.37376469 12.6199388 56.90232668 14.625 54.375 C17.86729611 50.37260516 21.16409518 46.42418798 24.5 42.5 C33.15367683 32.55644967 33.15367683 32.55644967 41 22 C20.705 21.505 20.705 21.505 0 21 C0 14.07 0 7.14 0 0 Z " fill="#1D2F36" transform="translate(685,694)"/>
<path d="M0 0 C7.82711356 5.25437536 13.51927284 12.89651706 16 22 C17.24373412 33.54708942 15.46342344 43.54416542 8.3125 52.875 C1.50201085 60.0540981 -7.4666529 63.93218938 -17.25 64.375 C-27.23467884 64.14248008 -36.03356138 60.14263259 -43 53 C-49.95938879 43.57644994 -52.19015206 34.65357228 -51 23 C-48.19173851 12.4188719 -42.41099715 4.64385874 -33.08984375 -0.9921875 C-22.54609649 -6.07683571 -10.27465894 -5.50370004 0 0 Z " fill="#1E3036" transform="translate(533,545)"/>
<path d="M0 0 C9.16659923 5.10453761 16.36974439 12.87335251 19.37109375 22.9921875 C21.21418803 31.93619538 20.14705034 41.70645425 15.5859375 49.6953125 C10.07218935 57.44994226 3.27111802 63.23241363 -6.125 65.4375 C-16.65740965 66.70095348 -25.26008562 65.86192456 -34.125 59.4375 C-41.33899336 52.99473949 -46.51910463 45.15428291 -47.3984375 35.40625 C-47.70765414 24.84531245 -45.58644373 16.50525071 -39.0625 8.0625 C-29.11270803 -2.09989437 -13.33740459 -5.29335468 0 0 Z " fill="#1E3036" transform="translate(388.125,542.5625)"/>
<path d="M0 0 C7.92 0 15.84 0 24 0 C24 42.24 24 84.48 24 128 C16.08 128 8.16 128 0 128 C0 85.76 0 43.52 0 0 Z " fill="#1C2E34" transform="translate(217,658)"/>
<path d="M0 0 C0 8.25 0 16.5 0 25 C-3.7125 24.87625 -3.7125 24.87625 -7.5 24.75 C-13.76766706 24.68064648 -18.95405409 24.86334891 -24 29 C-31.59305441 36.59305441 -32.45099066 43.58119942 -32.51171875 53.83984375 C-32.52966995 54.96193741 -32.54762115 56.08403107 -32.56611633 57.24012756 C-32.6200749 60.80588075 -32.65406951 64.37150115 -32.6875 67.9375 C-32.72068573 70.36264862 -32.75517655 72.78777976 -32.79101562 75.21289062 C-32.87823743 81.14194469 -32.93843239 87.07040255 -33 93 C-40.59 93 -48.18 93 -56 93 C-56.33 62.97 -56.66 32.94 -57 2 C-49.08 2 -41.16 2 -33 2 C-32.67 5.63 -32.34 9.26 -32 13 C-31.278125 12.2575 -30.55625 11.515 -29.8125 10.75 C-20.4040348 1.55061181 -13.70171714 0 0 0 Z " fill="#1D3037" transform="translate(926,693)"/>
<path d="M0 0 C0.92245514 -0.00571014 1.84491028 -0.01142029 2.7953186 -0.01730347 C3.80525879 -0.01842133 4.81519897 -0.01953918 5.85574341 -0.02069092 C7.45369247 -0.02813828 7.45369247 -0.02813828 9.08392334 -0.03573608 C12.61480348 -0.05036426 16.1456387 -0.05716048 19.67654419 -0.06268311 C22.12650555 -0.06843358 24.57646689 -0.07419133 27.02642822 -0.07995605 C32.16615001 -0.09046761 37.30585614 -0.09630942 42.44558716 -0.09979248 C49.03547484 -0.1052805 55.62515624 -0.12931466 62.21497917 -0.15776443 C67.27641406 -0.1763752 72.33779907 -0.18159557 77.39926529 -0.18312836 C79.8289719 -0.18615844 82.25867757 -0.19419886 84.68835068 -0.20731354 C88.08545449 -0.22434258 91.48205188 -0.22250133 94.87918091 -0.21600342 C95.88507263 -0.2252182 96.89096436 -0.23443298 97.92733765 -0.243927 C102.9090759 -0.21403344 106.493389 -0.1911227 110.49685669 3.14044189 C113.02292794 6.78755068 112.62853311 9.78259351 112.04373169 14.01544189 C111.27610149 16.99823354 109.98762532 18.38225227 107.49685669 20.14044189 C104.67096339 21.08240633 102.92123791 21.27201192 99.99371338 21.28761292 C99.07125824 21.29476822 98.1488031 21.30192352 97.19839478 21.30929565 C96.18845459 21.31198456 95.1785144 21.31467346 94.13796997 21.31744385 C92.5400209 21.32730064 92.5400209 21.32730064 90.90979004 21.33735657 C87.37891574 21.35709347 83.84808393 21.36875171 80.31716919 21.37872314 C78.51028437 21.38483644 78.51028437 21.38483644 76.66689682 21.39107323 C70.29397503 21.4119334 63.92107478 21.42623664 57.54812622 21.43560791 C50.95817703 21.44668568 44.36856427 21.48110189 37.77873421 21.52077961 C32.71729899 21.54688907 27.65594473 21.55529461 22.59444809 21.55888939 C20.16472979 21.56376825 17.73501541 21.57541893 15.3053627 21.59392738 C11.90814545 21.61820243 8.51180939 21.61737495 5.11453247 21.6104126 C4.10864075 21.62322266 3.10274902 21.63603271 2.06637573 21.64923096 C-2.31891911 21.61642107 -4.80215769 21.57091372 -8.60424805 19.23606873 C-11.99439844 15.49468801 -11.83456606 12.45102003 -11.79220581 7.55841064 C-11.50314331 5.14044189 -11.50314331 5.14044189 -9.69064331 2.57794189 C-6.41794746 0.42731319 -3.82157784 0.01417589 0 0 Z " fill="#FE700F" transform="translate(661.5031433105469,359.85955810546875)"/>
<path d="M0 0 C7.92 0 15.84 0 24 0 C24 30.03 24 60.06 24 91 C16.08 91 8.16 91 0 91 C0 60.97 0 30.94 0 0 Z " fill="#1D2E35" transform="translate(261,695)"/>
<path d="M0 0 C1.18567062 -0.0098568 1.18567062 -0.0098568 2.39529419 -0.01991272 C5.01776215 -0.03966323 7.64017277 -0.051313 10.26269531 -0.0612793 C11.15804237 -0.06535482 12.05338943 -0.06943035 12.97586823 -0.07362938 C17.71600617 -0.09449892 22.45611509 -0.10879605 27.19628906 -0.11816406 C32.09014457 -0.12922236 36.98354461 -0.16361294 41.87723923 -0.20333576 C45.64167113 -0.22949725 49.40599452 -0.23785554 53.17050934 -0.24144554 C54.97420574 -0.24631376 56.77789723 -0.2579345 58.58150482 -0.27648354 C61.1093894 -0.30086243 63.63609606 -0.2999124 66.1640625 -0.29296875 C66.90610931 -0.30577881 67.64815613 -0.31858887 68.41268921 -0.33178711 C73.52442024 -0.28073865 76.41789981 0.93816745 80.34082031 4.17700195 C83.02291942 8.20015062 83.02925447 11.44920115 82.34082031 16.17700195 C80.22690154 19.67590199 79.22345972 20.88278882 75.34082031 22.17700195 C72.64465385 22.28864865 69.9736534 22.34466135 67.27685547 22.35400391 C66.0446653 22.3638607 66.0446653 22.3638607 64.7875824 22.37391663 C62.06834828 22.39363259 59.34916928 22.40530721 56.62988281 22.4152832 C55.70110699 22.41935873 54.77233116 22.42343426 53.81541061 22.42763329 C48.90135674 22.4484848 43.98733073 22.46279161 39.07324219 22.47216797 C33.99660156 22.48324235 28.92039805 22.51765669 23.84391212 22.55733967 C19.94055359 22.58347202 16.03729987 22.5918567 12.13386154 22.59544945 C10.26235368 22.60032262 8.39085072 22.61195736 6.51942825 22.63048744 C3.90045626 22.65481164 1.28262437 22.65392661 -1.33642578 22.64697266 C-2.10854904 22.65978271 -2.8806723 22.67259277 -3.67619324 22.68579102 C-7.38631192 22.6498973 -9.46624347 22.30122889 -12.61685181 20.27262878 C-16.15190121 16.64532464 -16.10623483 13.56855391 -16.08496094 8.66137695 C-15.59501067 5.80258456 -14.98881338 4.93828652 -12.78417969 3.11450195 C-8.22214033 0.28603755 -5.26854444 0.01888519 0 0 Z " fill="#FE7111" transform="translate(650.6591796875,411.822998046875)"/>
<path d="M0 0 C0.67355026 -0.0049649 1.34710052 -0.00992981 2.0410614 -0.01504517 C4.26851425 -0.02964508 6.49589585 -0.03646553 8.72338867 -0.04199219 C10.27414451 -0.04774592 11.82490032 -0.05350363 13.37565613 -0.05926514 C16.62804495 -0.06976929 19.8804091 -0.07561562 23.1328125 -0.07910156 C27.29232051 -0.08458168 31.45150042 -0.10860161 35.61090565 -0.13707352 C38.81516968 -0.15573508 42.01935528 -0.16090739 45.22366905 -0.16243744 C46.75661701 -0.16545713 48.28956382 -0.17346257 49.82245827 -0.18662262 C51.97173338 -0.20375557 54.1202148 -0.20178562 56.26953125 -0.1953125 C57.49070145 -0.19895813 58.71187164 -0.20260376 59.970047 -0.20635986 C63.70819436 0.20263666 66.11954592 1.23523113 69.32885742 3.16113281 C71.9599866 6.50984267 71.6902714 10.04101345 71.32885742 14.16113281 C69.92432906 17.59442436 68.82056679 18.86645936 65.63169861 20.77749634 C62.01297146 22.29346474 59.51574822 22.54124763 55.60839844 22.54931641 C54.29005508 22.55877289 52.97171173 22.56822937 51.61341858 22.57797241 C50.18653053 22.57260168 48.75964525 22.56644847 47.33276367 22.55957031 C45.85595049 22.56159367 44.37913828 22.56450729 42.90232849 22.56826782 C39.81320648 22.57268026 36.72434547 22.56629619 33.63525391 22.55224609 C29.689974 22.5351696 25.74530714 22.54499205 21.80004978 22.56296349 C18.75184068 22.5738436 15.70377506 22.57033546 12.65556145 22.56258011 C11.20160791 22.56058898 9.74764104 22.56299891 8.29370308 22.57001877 C-5.93742543 22.6236513 -5.93742543 22.6236513 -11.67114258 19.16113281 C-14.13650678 16.29812923 -14.62664606 14.46704637 -15.17114258 10.72363281 C-14.50384809 5.96915956 -13.07816409 4.48892127 -9.67114258 1.16113281 C-6.25299845 0.02175144 -3.6054085 0.02019862 0 0 Z " fill="#FE7010" transform="translate(630.671142578125,464.8388671875)"/>
<path d="M0 0 C7.425 -0.0928125 7.425 -0.0928125 15 -0.1875 C16.54558594 -0.21481201 18.09117187 -0.24212402 19.68359375 -0.27026367 C35.43479751 -0.36553305 35.43479751 -0.36553305 40.53881836 4.45263672 C44.47566606 8.98389413 45.304079 11.87547053 45.2109375 17.6875 C44.75944163 22.63723256 42.66436505 25.35039861 39.1875 28.75 C33.85479096 32.51426521 29.30844024 33.25049949 22.8515625 33.1953125 C21.64838379 33.19031738 20.44520508 33.18532227 19.20556641 33.18017578 C16.93818604 33.15286377 16.93818604 33.15286377 14.625 33.125 C7.385625 33.063125 7.385625 33.063125 0 33 C0 22.11 0 11.22 0 0 Z " fill="#F6F6F3" transform="translate(505,733)"/>
<path d="M0 0 C7.425 -0.0928125 7.425 -0.0928125 15 -0.1875 C16.54558594 -0.21481201 18.09117187 -0.24212402 19.68359375 -0.27026367 C26.68728145 -0.31262469 32.65934704 -0.31568221 39 3 C43.50455796 7.73556093 44.37081157 10.95667197 44.26953125 17.328125 C43.83804778 21.6054394 42.59654398 24.59844985 40 28 C32.43289682 33.3537255 24.41689187 32.45322888 15.5 32.25 C10.385 32.1675 5.27 32.085 0 32 C0 21.44 0 10.88 0 0 Z " fill="#FAFAF6" transform="translate(133,733)"/>
<path d="M0 0 C6.7134375 -0.0928125 6.7134375 -0.0928125 13.5625 -0.1875 C14.96056885 -0.21481201 16.3586377 -0.24212402 17.79907227 -0.27026367 C26.12081312 -0.32596154 31.39850086 0.01152199 37.9375 5.4375 C40.84884623 9.26164455 40.51640891 13.46878469 40.46875 18.09765625 C39.74301819 22.59114572 37.86741549 25.19930878 34.5625 28.25 C30.26556498 31.18449221 26.62695977 31.12103164 21.484375 31.09765625 C20.35741211 31.09515869 19.23044922 31.09266113 18.06933594 31.09008789 C15.93126465 31.07643188 15.93126465 31.07643188 13.75 31.0625 C9.2125 31.041875 4.675 31.02125 0 31 C0 20.77 0 10.54 0 0 Z " fill="#FAF9F6" transform="translate(132,682)"/>
<path d="M0 0 C4.269375 -0.0825 8.53875 -0.165 12.9375 -0.25 C14.26515381 -0.28641602 15.59280762 -0.32283203 16.96069336 -0.36035156 C23.98965786 -0.42574218 30.05852525 -0.07761461 36 4 C38.97072082 7.34218475 40.21253425 10.53529508 40.4375 15 C40.1883409 19.14729341 39.08989163 22.37752118 37 26 C31.55579222 30.40169991 27.54372779 31.12992324 20.703125 31.09765625 C19.61676758 31.09515869 18.53041016 31.09266113 17.41113281 31.09008789 C16.03795898 31.08098389 14.66478516 31.07187988 13.25 31.0625 C6.69125 31.0315625 6.69125 31.0315625 0 31 C0 20.77 0 10.54 0 0 Z " fill="#F7F6F3" transform="translate(505,682)"/>
<path d="M0 0 C14.52 0 29.04 0 44 0 C33.73915684 21.66178001 33.73915684 21.66178001 29.6875 29.125 C26.52075987 34.98220255 23.62419611 40.87837923 21 47 C17.71917549 43.19562605 15.98986286 38.78298723 14.0234375 34.21875 C13.65272125 33.36825073 13.282005 32.51775146 12.90005493 31.64147949 C12.11932463 29.84720525 11.34117107 28.05180789 10.56542969 26.25537109 C9.37813912 23.50726582 8.18192488 20.76317898 6.984375 18.01953125 C6.22603103 16.27366826 5.46820104 14.5275819 4.7109375 12.78125 C4.3536557 11.96136597 3.9963739 11.14148193 3.62826538 10.29675293 C3.2976712 9.52915649 2.96707703 8.76156006 2.62646484 7.97070312 C2.3357309 7.29881958 2.04499695 6.62693604 1.74545288 5.93469238 C1 4 1 4 0 0 Z " fill="#FC7313" transform="translate(428,321)"/>
<path d="M0 0 C1.67642578 0.02030273 1.67642578 0.02030273 3.38671875 0.04101562 C6.13331211 0.07622836 8.87890289 0.12547904 11.625 0.1875 C11.81565529 6.88161912 11.12937451 11.37368524 7.625 17.1875 C2.76622766 22.31620413 -3.56617642 24.32262273 -10.5 24.625 C-15.72079825 24.48020128 -18.67354846 22.88895154 -22.375 19.1875 C-22.94207887 14.25112496 -22.8893184 10.27548124 -20.75 5.75 C-14.74628811 -0.72768914 -8.26857462 -0.18991426 0 0 Z " fill="#F7F7F4" transform="translate(633.375,746.8125)"/>
<path d="M0 0 C1.02802734 0.00322266 2.05605469 0.00644531 3.11523438 0.00976562 C4.72301758 0.02233398 4.72301758 0.02233398 6.36328125 0.03515625 C7.44673828 0.03966797 8.53019531 0.04417969 9.64648438 0.04882812 C12.3229721 0.06061882 14.99934902 0.07707562 17.67578125 0.09765625 C17.89576543 6.83569009 17.59657802 11.44142485 13.67578125 17.09765625 C8.90493408 22.00102695 2.81713453 24.22205057 -3.94921875 24.47265625 C-8.00944048 24.32539432 -10.88884062 23.35997843 -14.32421875 21.09765625 C-16.79614206 17.38977129 -16.99210607 14.398199 -16.32421875 10.09765625 C-12.48541331 2.83134596 -8.14106871 -0.04497828 0 0 Z " fill="#F7F7F5" transform="translate(809.32421875,746.90234375)"/>
<path d="M0 0 C3.80556935 3.15318603 6.91772502 6.49243515 7.5 11.5 C7.10064027 15.73321309 5.85766153 18.51846896 3.1875 21.8125 C-1.47226863 25.17186808 -6.23893385 25.70147381 -11.8125 24.8125 C-16.72874028 22.44542134 -18.99852527 19.95209507 -20.8125 14.8125 C-21.34794952 10.52890386 -21.12285287 8.41021664 -19.125 4.5625 C-13.92946302 -1.61597641 -7.50885091 -3.17040372 0 0 Z " fill="#1C2D34" transform="translate(279.8125,658.1875)"/>
<path d="M0 0 C4.21968485 3.54837135 5.57339482 5.72305335 6.1875 11.25 C6.00126393 15.54152681 4.61985359 18.0650341 1.75 21.3125 C-2.27345146 23.93649008 -5.47279707 25.18994544 -10.25 24.3125 C-14.25628118 21.71723609 -17.52656404 18.8429183 -19.25 14.3125 C-19.49137178 9.81493923 -18.80333627 6.20928637 -16.4375 2.375 C-11.4184518 -2.35724544 -6.32936772 -3.28640247 0 0 Z " fill="#F7F7F4" transform="translate(522.25,563.6875)"/>
<path d="M0 0 C3.92364027 2.31487497 6.54973408 4.64920223 8 9 C8.53923825 14.71592544 7.63434458 17.55802329 4 22 C1.35704153 24.83174122 0.06914072 24.99219379 -3.875 25.4375 C-8.19721648 25.25237713 -10.72677971 23.89261328 -14 21 C-16.64201025 16.94891762 -17.70236884 13.8162435 -17 9 C-12.92045002 1.56939111 -8.57018835 -1.81486342 0 0 Z " fill="#F8F8F5" transform="translate(379,562)"/>
<path d="M0 0 C7.92 0 15.84 0 24 0 C24 3.96 24 7.92 24 12 C22 8 22 8 22 2 C15.4 2 8.8 2 2 2 C2 31.04 2 60.08 2 90 C8.93 90 15.86 90 23 90 C22.98952637 88.48124268 22.97905273 86.96248535 22.96826172 85.39770508 C22.93204761 79.76019653 22.90909425 74.12269825 22.89013672 68.48510742 C22.8800824 66.0456367 22.86643708 63.60617803 22.84912109 61.16674805 C22.82484818 57.65931221 22.81351109 54.15203579 22.8046875 50.64453125 C22.79436493 49.55477493 22.78404236 48.46501862 22.77340698 47.34223938 C22.77325592 46.32155869 22.77310486 45.30087799 22.77294922 44.24926758 C22.768508 43.35436111 22.76406677 42.45945465 22.75949097 41.53742981 C23.02649737 38.72044624 23.83539301 36.56584518 25 34 C26 37 26 37 25 40 C24.88486168 41.67150987 24.82363216 43.3469963 24.79467773 45.0222168 C24.77473251 46.04304855 24.75478729 47.06388031 24.73423767 48.11564636 C24.70916893 49.76576469 24.70916893 49.76576469 24.68359375 51.44921875 C24.66281265 52.5769722 24.64203156 53.70472565 24.62062073 54.86665344 C24.55517153 58.4735396 24.49626156 62.08049929 24.4375 65.6875 C24.39431039 68.13086702 24.35069596 70.57422656 24.30664062 73.01757812 C24.19869448 79.01164444 24.09958608 85.00576558 24 91 C16.41 91 8.82 91 1 91 C0.67 60.97 0.34 30.94 0 0 Z " fill="#000203" transform="translate(869,695)"/>
<path d="M0 0 C3.1606558 0.28058936 6.28988387 0.34490517 9.4621582 0.32872009 C11.1637207 0.32388611 11.1637207 0.32388611 12.8996582 0.31895447 C14.60895508 0.30638611 14.60895508 0.30638611 16.3527832 0.29356384 C17.5387207 0.28905212 18.7246582 0.28454041 19.9465332 0.27989197 C22.83200548 0.268257 25.71736533 0.25191224 28.6027832 0.23106384 C29.0977832 1.22106384 29.0977832 1.22106384 29.6027832 2.23106384 C-4.3872168 2.23106384 -38.3772168 2.23106384 -73.3972168 2.23106384 C-69.4469416 0.25592624 -67.87932584 -0.03556709 -63.62573242 -0.10365295 C-61.88241638 -0.13829903 -61.88241638 -0.13829903 -60.10388184 -0.17364502 C-58.22267639 -0.19567741 -58.22267639 -0.19567741 -56.3034668 -0.21815491 C-55.00582397 -0.23989273 -53.70818115 -0.26163055 -52.37121582 -0.2840271 C-49.62081969 -0.32940825 -46.87043527 -0.36818433 -44.11987305 -0.4019928 C-40.62790064 -0.44519329 -37.13632208 -0.5019778 -33.64463043 -0.56354046 C-30.28099652 -0.62146568 -26.91724837 -0.66953252 -23.5534668 -0.71815491 C-22.31552368 -0.73891586 -21.07758057 -0.75967682 -19.80212402 -0.78106689 C-13.14459553 -0.85754705 -6.62818286 -0.62698005 0 0 Z " fill="#FD6203" transform="translate(733.397216796875,378.76893615722656)"/>
<path d="M0 0 C1.29461655 0.00222061 2.58923309 0.00444122 3.92308044 0.00672913 C4.99131546 0.00651009 4.99131546 0.00651009 6.08113098 0.00628662 C8.4457143 0.00698581 10.81021979 0.01477846 13.17478943 0.02259827 C14.81003781 0.02446243 16.44528675 0.02588634 18.08053589 0.02688599 C22.39273103 0.03071134 26.7048927 0.04054177 31.01707458 0.05158997 C35.41404263 0.06180371 39.81101607 0.06638353 44.20799255 0.07142639 C52.84147149 0.08216402 61.47492317 0.09924065 70.10838318 0.12025452 C70.10838318 0.45025452 70.10838318 0.78025452 70.10838318 1.12025452 C65.48838318 1.45025452 60.86838318 1.78025452 56.10838318 2.12025452 C56.10838318 2.45025452 56.10838318 2.78025452 56.10838318 3.12025452 C37.29838318 3.12025452 18.48838318 3.12025452 -0.89161682 3.12025452 C-0.89161682 8.40025452 -0.89161682 13.68025452 -0.89161682 19.12025452 C2.07838318 19.12025452 5.04838318 19.12025452 8.10838318 19.12025452 C8.10838318 19.45025452 8.10838318 19.78025452 8.10838318 20.12025452 C4.14838318 20.45025452 0.18838318 20.78025452 -3.89161682 21.12025452 C-3.91845119 17.80770126 -3.93837462 14.49536269 -3.95411682 11.18275452 C-3.96249573 10.23722717 -3.97087463 9.29169983 -3.97950745 8.31752014 C-3.9827301 7.41839905 -3.98595276 6.51927795 -3.98927307 5.59291077 C-3.99450989 4.76025696 -3.9997467 3.92760315 -4.00514221 3.06971741 C-3.81964396 -0.11566651 -3.23404265 0.13449508 0 0 Z " fill="#4F5E62" transform="translate(392.89161682128906,693.8797454833984)"/>
<path d="M0 0 C7.92 0 15.84 0 24 0 C24 3.96 24 7.92 24 12 C22 8 22 8 22 2 C15.4 2 8.8 2 2 2 C2 8.27 2 14.54 2 21 C-0.06723714 17.89914429 -0.24497423 17.27068319 -0.1953125 13.76953125 C-0.19031738 13.04612549 -0.18532227 12.32271973 -0.18017578 11.57739258 C-0.16196777 10.66497803 -0.14375977 9.75256348 -0.125 8.8125 C-0.08375 5.904375 -0.0425 2.99625 0 0 Z " fill="#09161D" transform="translate(869,695)"/>
<path d="M0 0 C1.32 0.33 2.64 0.66 4 1 C3.34 1 2.68 1 2 1 C2 10.24 2 19.48 2 29 C4.31 29 6.62 29 9 29 C8.67 29.66 8.34 30.32 8 31 C5.36 31 2.72 31 0 31 C0 20.77 0 10.54 0 0 Z " fill="#D4D9DA" transform="translate(132,682)"/>
<path d="M0 0 C0.66 0.99 1.32 1.98 2 3 C1.34 3 0.68 3 0 3 C-0.103125 4.155 -0.20625 5.31 -0.3125 6.5 C-0.86035113 11.01171519 -2.2774879 14.80605749 -4 19 C-4.66 19 -5.32 19 -6 19 C-6.33 19.66 -6.66 20.32 -7 21 C-6.61521615 14.33041329 -4.89445477 4.89445477 0 0 Z " fill="#277C2B" transform="translate(480,217)"/>
<path d="M0 0 C3.01969936 1.50984968 3.40521919 3.81075302 4.6875 6.875 C5.14511719 7.94492187 5.60273438 9.01484375 6.07421875 10.1171875 C7 13 7 13 6 16 C5.67 15.01 5.34 14.02 5 13 C3.35 13.66 1.7 14.32 0 15 C0 13.68 0 12.36 0 11 C0.66 11 1.32 11 2 11 C1.855625 10.29875 1.71125 9.5975 1.5625 8.875 C0.98521625 5.92443859 0.48304859 2.96729849 0 0 Z " fill="#26893B" transform="translate(430,328)"/>
<path d="M0 0 C1.12707478 3.38122435 0.97290788 5.5893502 0.6875 9.125 C0.60886719 10.20007813 0.53023437 11.27515625 0.44921875 12.3828125 C0.22685547 13.67832031 0.22685547 13.67832031 0 15 C-0.99 15.495 -0.99 15.495 -2 16 C-3.24377393 13.51245214 -3.13306235 11.77344699 -3.125 9 C-3.12757813 8.113125 -3.13015625 7.22625 -3.1328125 6.3125 C-3 4 -3 4 -2 2 C-1.34 2 -0.68 2 0 2 C0 1.34 0 0.68 0 0 Z " fill="#2A373B" transform="translate(771,752)"/>
<path d="M0 0 C1.30062431 3.81516464 0.89369853 7.27561763 0.5625 11.25 C0.46066406 12.51328125 0.35882813 13.7765625 0.25390625 15.078125 C0.17011719 16.04234375 0.08632813 17.0065625 0 18 C-0.99 18 -1.98 18 -3 18 C-3 13.38 -3 8.76 -3 4 C-2.34 3.67 -1.68 3.34 -1 3 C-0.67 2.01 -0.34 1.02 0 0 Z " fill="#27383D" transform="translate(485,564)"/>
<path d="M0 0 C2.31 0 4.62 0 7 0 C4.25 4.875 4.25 4.875 2 6 C1.53348793 8.12576782 1.53348793 8.12576782 1.375 10.5625 C1.30023438 11.38878906 1.22546875 12.21507812 1.1484375 13.06640625 C1.09945312 13.70449219 1.05046875 14.34257813 1 15 C0.67 15 0.34 15 0 15 C0 10.05 0 5.1 0 0 Z " fill="#23363C" transform="translate(109,663)"/>
<path d="M0 0 C0.33 0.99 0.66 1.98 1 3 C0.01 3.495 0.01 3.495 -1 4 C-0.67 2.68 -0.34 1.36 0 0 Z M-2 4 C-1.34 4.33 -0.68 4.66 0 5 C0 6.98 0 8.96 0 11 C-0.66 9.68 -1.32 8.36 -2 7 C-2.515625 7.61875 -3.03125 8.2375 -3.5625 8.875 C-6.54458615 11.47476742 -9.18446201 12.11949123 -13 13 C-13.33 12.34 -13.66 11.68 -14 11 C-13.30132813 10.66226563 -12.60265625 10.32453125 -11.8828125 9.9765625 C-10.97273437 9.53054688 -10.06265625 9.08453125 -9.125 8.625 C-8.22007812 8.18414063 -7.31515625 7.74328125 -6.3828125 7.2890625 C-3.90465528 6.09497301 -3.90465528 6.09497301 -2 4 Z " fill="#EEF0EF" transform="translate(827,775)"/>
<path d="M0 0 C1.74216797 0.02707031 1.74216797 0.02707031 3.51953125 0.0546875 C4.39996094 0.07789063 5.28039062 0.10109375 6.1875 0.125 C6.1875 1.115 6.1875 2.105 6.1875 3.125 C4.99253906 2.98191406 4.99253906 2.98191406 3.7734375 2.8359375 C-4.19637714 1.93102301 -4.19637714 1.93102301 -11.8125 4.125 C-11.8125 3.465 -11.8125 2.805 -11.8125 2.125 C-7.73526266 0.17468308 -4.49557578 -0.09081971 0 0 Z " fill="#E7E9E8" transform="translate(810.8125,711.875)"/>
<path d="M0 0 C2.31 0 4.62 0 7 0 C8 3 8 3 7.0625 5.1875 C6.711875 5.785625 6.36125 6.38375 6 7 C6 5.68 6 4.36 6 3 C0.06 3 -5.88 3 -12 3 C-12 2.67 -12 2.34 -12 2 C-6.06 1.505 -6.06 1.505 0 1 C0 0.67 0 0.34 0 0 Z " fill="#25353B" transform="translate(821,744)"/>
<path d="M0 0 C0.99 0 1.98 0 3 0 C3 0.66 3 1.32 3 2 C8.94 2.33 14.88 2.66 21 3 C21 3.33 21 3.66 21 4 C14.4 4 7.8 4 1 4 C0.67 2.68 0.34 1.36 0 0 Z " fill="#263B42" transform="translate(771,717)"/>
<path d="M0 0 C11.52164009 -0.3690205 11.52164009 -0.3690205 17 2 C17 2.33 17 2.66 17 3 C14.36 3.33 11.72 3.66 9 4 C8.67 3.01 8.34 2.02 8 1 C5.36 1 2.72 1 0 1 C0 0.67 0 0.34 0 0 Z " fill="#0F191E" transform="translate(532,662)"/>
<path d="M0 0 C3.96 0 7.92 0 12 0 C11.67 0.99 11.34 1.98 11 3 C7.37 2.67 3.74 2.34 0 2 C0 1.34 0 0.68 0 0 Z " fill="#EEF0EF" transform="translate(622,712)"/>
<path d="M0 0 C0 1.65 0 3.3 0 5 C-1.175625 5.37125 -1.175625 5.37125 -2.375 5.75 C-5.32317108 7.15389099 -5.9024777 8.00675737 -7 11 C-7.66 10.67 -8.32 10.34 -9 10 C-2.63636364 0 -2.63636364 0 0 0 Z " fill="#0F1B20" transform="translate(779,740)"/>
<path d="M0 0 C0.66 0 1.32 0 2 0 C2.66 1.98 3.32 3.96 4 6 C2.68 6 1.36 6 0 6 C-0.99 7.485 -0.99 7.485 -2 9 C-2.66 8.67 -3.32 8.34 -4 8 C-2.68 5.36 -1.36 2.72 0 0 Z " fill="#EA710F" transform="translate(445,433)"/>
<path d="M0 0 C3.3125 1.5 3.3125 1.5 6 3 C5.67 3.66 5.34 4.32 5 5 C0.38 4.01 -4.24 3.02 -9 2 C-4.03846154 -0.48076923 -4.03846154 -0.48076923 0 0 Z " fill="#E1E4E4" transform="translate(545,660)"/>
<path d="M0 0 C0.556875 0.268125 1.11375 0.53625 1.6875 0.8125 C0.3675 1.1425 -0.9525 1.4725 -2.3125 1.8125 C-2.415625 2.451875 -2.51875 3.09125 -2.625 3.75 C-2.851875 4.430625 -3.07875 5.11125 -3.3125 5.8125 C-4.3025 6.1425 -5.2925 6.4725 -6.3125 6.8125 C-6.9725 7.8025 -7.6325 8.7925 -8.3125 9.8125 C-8.00654824 6.24306285 -7.28825359 4.78235581 -5 1.9375 C-2.3125 -0.1875 -2.3125 -0.1875 0 0 Z " fill="#121C20" transform="translate(268.3125,658.1875)"/>
<path d="M0 0 C4.92127034 -0.16682272 8.50343896 -0.24828052 13 2 C9.86650268 3.04449911 9.01031744 2.93423645 6 2 C5.67 2.99 5.34 3.98 5 5 C4.34 5 3.68 5 3 5 C3.33 4.01 3.66 3.02 4 2 C2.68 1.34 1.36 0.68 0 0 Z " fill="#101A1F" transform="translate(164,662)"/>
<path d="M0 0 C1 3 1 3 0.22265625 5.04296875 C-0.16019531 5.75066406 -0.54304688 6.45835937 -0.9375 7.1875 C-1.31777344 7.90292969 -1.69804687 8.61835938 -2.08984375 9.35546875 C-2.39019531 9.89816406 -2.69054687 10.44085938 -3 11 C-3.99 11 -4.98 11 -6 11 C-6.33 10.01 -6.66 9.02 -7 8 C-6.401875 7.79375 -5.80375 7.5875 -5.1875 7.375 C-2.18981233 5.49073918 -1.38638224 3.18867916 0 0 Z " fill="#1E8B3C" transform="translate(496,323)"/>
<path d="M0 0 C0.33 0.66 0.66 1.32 1 2 C1.99 2.33 2.98 2.66 4 3 C4 4.98 4 6.96 4 9 C3.01 9.495 3.01 9.495 2 10 C1.34 6.7 0.68 3.4 0 0 Z " fill="#2B373C" transform="translate(283,664)"/>
<path d="M0 0 C0 1.32 0 2.64 0 4 C1.92022703 5.77409808 1.92022703 5.77409808 4 7 C-0.83256305 6.58578031 -2.82679218 4.53586014 -6 1 C-3.92446352 0.4465236 -2.15634036 0 0 0 Z " fill="#131E23" transform="translate(500,599)"/>
<path d="M0 0 C0.99 0 1.98 0 3 0 C2.34 1.32 1.68 2.64 1 4 C0.34 4 -0.32 4 -1 4 C-1 4.66 -1 5.32 -1 6 C-2.65 6.66 -4.3 7.32 -6 8 C-6.66 7.34 -7.32 6.68 -8 6 C-7.05125 5.566875 -6.1025 5.13375 -5.125 4.6875 C-1.79958063 3.20697799 -1.79958063 3.20697799 0 0 Z " fill="#EB7210" transform="translate(482,466)"/>
<path d="M0 0 C0.99 0.99 1.98 1.98 3 3 C2.67 3.99 2.34 4.98 2 6 C1.67 5.67 1.34 5.34 1 5 C0.67 5.99 0.34 6.98 0 8 C-2 6 -2 6 -2.125 3.375 C-2.08375 2.59125 -2.0425 1.8075 -2 1 C-1.34 0.67 -0.68 0.34 0 0 Z " fill="#25893B" transform="translate(443,359)"/>
<path d="M0 0 C0 3.67718093 -0.82184858 5.07076189 -3 8 C-5.6875 9.3125 -5.6875 9.3125 -8 10 C-7.04367001 8.70684939 -6.08486149 7.41553147 -5.125 6.125 C-4.59132813 5.40570312 -4.05765625 4.68640625 -3.5078125 3.9453125 C-2 2 -2 2 0 0 Z " fill="#0F191E" transform="translate(721,723)"/>
<path d="M0 0 C0.33 0.99 0.66 1.98 1 3 C-3.455 3.495 -3.455 3.495 -8 4 C-8.33 3.34 -8.66 2.68 -9 2 C-5.5647952 -0.29013653 -4.014669 -0.17842973 0 0 Z " fill="#24353C" transform="translate(819,693)"/>
<path d="M0 0 C0.99 0.33 1.98 0.66 3 1 C3 1.99 3 2.98 3 4 C0.23735711 4.59732819 -2.16032769 5 -5 5 C-3.35 3.35 -1.7 1.7 0 0 Z " fill="#207824" transform="translate(498,192)"/>
<path d="M0 0 C0.33 0.66 0.66 1.32 1 2 C0.0625 4.625 0.0625 4.625 -1 7 C-1.66 6.67 -2.32 6.34 -3 6 C-1.125 1.125 -1.125 1.125 0 0 Z M-8 9 C-7.34 9.33 -6.68 9.66 -6 10 C-6.99 10 -7.98 10 -9 10 C-8.67 9.67 -8.34 9.34 -8 9 Z " fill="#EDEFEF" transform="translate(571,768)"/>
<path d="M0 0 C0 4.38968456 -2.12805101 5.76905739 -5 9 C-5 6.29745539 -4.96569331 4.49470772 -4 2 C-1.9375 0.75 -1.9375 0.75 0 0 Z " fill="#121B21" transform="translate(748,722)"/>
<path d="M0 0 C1.10844919 3.32534757 0.84454356 5.62182575 0 9 C-0.99 9 -1.98 9 -3 9 C-2.5020163 5.26512223 -2.12508244 3.18762365 0 0 Z " fill="#23883C" transform="translate(406,446)"/>
<path d="M0 0 C0.66 0.33 1.32 0.66 2 1 C0.68 3.64 -0.64 6.28 -2 9 C-2.66 9 -3.32 9 -4 9 C-2.25 2.25 -2.25 2.25 0 0 Z " fill="#E47010" transform="translate(469,323)"/>
<path d="M0 0 C0.33 0.99 0.66 1.98 1 3 C2.65 2.67 4.3 2.34 6 2 C6 2.99 6 3.98 6 5 C5.01 5 4.02 5 3 5 C2.34 5.66 1.68 6.32 1 7 C0.67 4.69 0.34 2.38 0 0 Z " fill="#111E24" transform="translate(587,766)"/>
<path d="M0 0 C1.65 0 3.3 0 5 0 C4.34 1.65 3.68 3.3 3 5 C2.67 4.34 2.34 3.68 2 3 C1.01 2.67 0.02 2.34 -1 2 C-0.67 1.34 -0.34 0.68 0 0 Z " fill="#152429" transform="translate(399,589)"/>
<path d="M0 0 C0.66 0.99 1.32 1.98 2 3 C1.690625 3.598125 1.38125 4.19625 1.0625 4.8125 C-0.10209704 7.08956772 -0.10209704 7.08956772 -1 10 C-1.66 9.67 -2.32 9.34 -3 9 C-2.01 6.03 -1.02 3.06 0 0 Z " fill="#FBF3E9" transform="translate(619,388)"/>
<path d="M0 0 C0.33 0 0.66 0 1 0 C1 1.98 1 3.96 1 6 C-0.98 6.99 -0.98 6.99 -3 8 C-1.125 2.25 -1.125 2.25 0 0 Z " fill="#1B761F" transform="translate(475,314)"/>
</svg>
